<svg width="55" height="64" viewBox="0 0 55 64" fill="none" xmlns="http://www.w3.org/2000/svg">
<g clip-path="url(#clip0_145_93)">
<path fill-rule="evenodd" clip-rule="evenodd" d="M17.4303 3.85319C19.9352 0.580052 23.3381 -0.0321862 27.1553 0.389309C29.9457 0.699032 32.4735 1.69939 34.8825 3.06875C41.0151 6.55108 45.6985 11.5138 49.2958 17.565C51.8388 21.8386 53.2594 26.5373 53.99 31.4149C54.9935 38.1309 51.1879 42.6493 44.4569 43.0119C43.0986 43.0837 41.7401 43.1328 40.4494 43.1907C40.194 43.7088 39.9909 44.0255 39.8727 44.3737C38.5288 48.3525 35.5644 50.3725 31.692 51.3394C28.8552 52.0463 26.0285 52.1919 23.18 51.4216C21.9311 51.085 20.7972 51.0979 19.6912 52.0475C18.1182 53.3987 16.1274 53.7794 14.1259 54.038C13.4202 54.1294 12.7213 54.2734 12.0183 54.3942C11.8393 55.0642 11.7014 55.5411 11.5834 56.0232C10.6481 59.8656 8.0051 61.9139 4.42136 62.9833C2.98223 63.4122 1.69321 63.138 0.621028 62.0931C0.0372228 61.5267 -0.159167 60.704 0.223612 60.0151C0.487911 59.5345 1.08588 59.1001 1.6199 58.9469C2.1856 58.7868 2.85832 59.0704 3.47012 59.0092C5.50891 58.8043 6.94483 57.6776 7.74674 55.8047C8.50091 54.0483 8.44625 52.3995 6.95575 50.955C5.94558 49.9753 5.36876 48.7104 5.06039 47.3284C4.72081 45.8043 5.14792 44.6355 6.2492 44.077C7.24696 43.5702 8.57351 44.0108 9.42126 45.3548C10.0828 46.4044 10.5525 47.5854 11.0217 48.746C11.4612 49.8337 12.2803 50.2467 13.3501 50.3141C14.4947 50.387 14.7039 50.3005 16.7484 49.0164C15.8651 48.2691 15.0256 47.5585 14.1875 46.8499C12.258 45.2182 10.5719 43.3695 9.40362 41.1026C8.35218 39.0643 7.64836 36.9064 7.91209 34.5731C8.34177 30.7776 12.3277 28.8875 15.4753 30.9976C16.2922 31.5446 17.036 32.2772 17.6321 33.0638C20.5644 36.9429 22.6344 41.1758 22.6497 46.2049C22.6506 46.6841 22.8161 47.1633 22.8934 47.5796C26.7164 48.8194 30.5554 48.5793 33.4676 46.8368C34.3038 46.3371 35.081 45.6374 35.6784 44.8656C36.065 44.3644 36.0793 43.569 36.2438 42.97C35.7952 42.7063 35.5958 42.5353 35.3654 42.4609C24.2521 38.8778 16.3908 31.163 9.83204 21.8595C7.76403 18.9265 6.78784 15.514 6.72405 11.9096C6.64638 7.58262 9.58584 4.50967 13.8693 4.31887C14.8572 4.27457 15.8497 4.31645 16.8012 4.31852C17.0387 4.14697 17.2879 4.04161 17.4303 3.85319ZM20.9476 6.50142C28.8033 12.3685 33.8015 20.4548 37.9994 29.1108C39.0243 31.2248 39.4758 33.6283 40.1188 35.9203C40.4171 36.9848 40.5424 38.0998 40.764 39.2917C42.7467 39.7141 44.6138 39.5177 46.4069 39.1055C48.7849 38.5587 50.3772 36.41 50.5106 33.8717C50.563 32.8706 50.567 31.8411 50.393 30.8591C48.4111 19.6219 42.5812 11.1418 32.5407 5.73627C30.0832 4.41118 27.463 3.59245 24.6355 3.88317C23.0374 4.04815 21.4258 4.34424 20.6912 6.06108C20.8185 6.28725 20.8543 6.43281 20.9476 6.50142ZM19.2157 12.304C20.2365 15.8479 22.0548 18.7172 25.8108 19.8404C26.2885 19.9828 26.7698 20.1209 27.2283 20.3083C28.0222 20.633 28.3197 21.3159 28.3014 22.1139C28.2839 22.9216 27.3821 23.8148 26.5554 23.7797C25.8233 23.7496 25.0483 23.6523 24.3767 23.3764C19.1908 21.2437 16.3468 17.2487 15.5339 11.7334C15.3887 10.7556 15.5174 9.73524 15.52 8.79343C14.4518 7.71272 13.3809 8.05959 12.3623 8.54876C11.2825 9.06664 10.507 9.96706 10.5741 11.1996C10.6611 12.8128 10.7961 14.469 11.2509 16.004C11.7081 17.546 12.4244 19.0673 13.3017 20.417C17.3779 26.6855 22.3947 32.0423 28.8038 35.9436C31.1421 37.3659 33.584 38.6132 36.2331 39.0843C37.1979 38.5505 37.0376 37.7108 36.8811 37.0572C36.3546 34.8707 35.9613 32.5969 35.0521 30.5711C32.6832 25.2946 29.7687 20.3074 25.942 15.9509C24.3818 14.177 22.5779 12.6158 20.8424 10.9998C20.5158 10.6962 19.9951 10.6016 19.3128 10.2986C19.2613 11.1437 19.064 11.7764 19.2157 12.304ZM13.8603 34.5621C13.5159 34.2471 12.709 34.22 12.2181 34.3786C11.9051 34.4802 11.5868 35.1845 11.6127 35.5972C11.6705 36.5729 11.8091 37.5796 12.1343 38.4942C13.1603 41.3959 15.3084 43.6757 19.0205 45.7079C18.7926 40.9301 16.9805 37.4218 13.8603 34.5621Z" fill="#3B3B3B"/>
</g>
<defs>
<clipPath id="clip0_145_93">
<rect width="63.1468" height="53.8183" fill="white" transform="translate(54.5143 0.595947) rotate(90.6346)"/>
</clipPath>
</defs>
</svg>
