<svg width="70" height="70" viewBox="0 0 70 70" fill="none" xmlns="http://www.w3.org/2000/svg">
<circle cx="35" cy="35" r="35" fill="url(#paint0_linear_84_38)" fill-opacity="0.5"/>
<circle cx="35" cy="35" r="30" fill="url(#paint1_linear_84_38)"/>
<path fill-rule="evenodd" clip-rule="evenodd" d="M26.5 35C26.5 34.4132 26.9757 33.9375 27.5625 33.9375H39.8724L35.3112 29.3763C34.8963 28.9614 34.8963 28.2886 35.3112 27.8737C35.7261 27.4588 36.3989 27.4588 36.8138 27.8737L43.1888 34.2487C43.6037 34.6636 43.6037 35.3364 43.1888 35.7513L36.8138 42.1263C36.3989 42.5412 35.7261 42.5412 35.3112 42.1263C34.8963 41.7114 34.8963 41.0386 35.3112 40.6237L39.8724 36.0625H27.5625C26.9757 36.0625 26.5 35.5868 26.5 35Z" fill="#333333"/>
<defs>
<linearGradient id="paint0_linear_84_38" x1="0" y1="0" x2="75.8673" y2="7.07397" gradientUnits="userSpaceOnUse">
<stop stop-color="#FFEF4A"/>
<stop offset="0.557692" stop-color="#FFF34A"/>
<stop offset="1" stop-color="#FFC34A"/>
</linearGradient>
<linearGradient id="paint1_linear_84_38" x1="5" y1="5" x2="70.0291" y2="11.0634" gradientUnits="userSpaceOnUse">
<stop stop-color="#FFEF4A"/>
<stop offset="0.557692" stop-color="#FFF34A"/>
<stop offset="1" stop-color="#FFC34A"/>
</linearGradient>
</defs>
</svg>
