<?xml version="1.0" encoding="UTF-8"?>
<svg id="_レイヤー_2" data-name="レイヤー_2" xmlns="http://www.w3.org/2000/svg" viewBox="0 0 266.38101 198.11622">
  <g id="_レイヤー_1-2" data-name="レイヤー_1">
    <g>
      <polygon points="110.29835 77.31298 106.88746 93.19874 91.00445 96.60984 106.88746 100.02124 110.29835 115.90668 113.70891 100.02124 129.59228 96.60984 113.70891 93.19874 110.29835 77.31298"/>
      <path d="M177.00875,63.7282v-.00002l.00005.00002,10.2993-29.28405c.01309.00016.02575.00196.03889.00196,1.76023,0,3.18714-1.42723,3.18714-3.18774s-1.4269-3.18777-3.18714-3.18777-3.18723,1.42725-3.18723,3.18777c0,1.5464,1.1013,2.8349,2.56204,3.12559-.42468.56325-.9516,1.23887-1.56468,1.9787-.15515.18721-.31573.37848-.48149.57298-3.31535,3.89015-8.69897,9.07701-13.8357,9.07701-5.32371,0-7.83445-5.03772-8.93154-8.50116-.15671-.49479-.28462-.95742-.3877-1.36867-.00298-.01181-.00526-.02217-.00817-.03388.03078.00088.06082.00463.09181.00463,1.76021,0,3.18711-1.42723,3.18711-3.18774s-1.4269-3.18777-3.18711-3.18777-3.18728,1.42725-3.18728,3.18777c0,1.13572.59571,2.13005,1.4898,2.69468-.05169.04771-.10376.09561-.15839.1446-.03223.0289-.06597.05835-.09922.08762-.053.04669-.10704.0937-.16258.14123-.03681.03148-.07419.06308-.11207.09484-.05744.04815-.11671.09668-.17667.14535-.03768.03057-.07482.06105-.11345.09177-.07719.0614-.15701.12299-.23802.18468-.02326.0177-.04527.03537-.06885.05307-.10271.07717-.20894.15429-.31745.23108-.038.02692-.07754.05353-.11624.08033-.07503.05193-.15091.10371-.2285.15508-.04576.03029-.09233.06036-.13899.09042-.07572.04876-.15278.09701-.23078.14493-.04699.02887-.09389.05777-.14169.08627-.08916.05314-.18035.10525-.2723.1569-.03816.02145-.07535.0434-.11398.06452-.12909.07065-.26082.13964-.39513.20656-.03602.01795-.07333.03481-.10972.05246-.10141.0492-.20382.09752-.30804.14416-.05141.02301-.10374.04508-.15583.06741-.09361.04012-.18822.07912-.28392.11685-.05453.02152-.10923.04282-.16446.0635-.10194.03816-.20542.07433-.3096.10951-.04878.01646-.09698.03374-.14626.0495-.15315.04899-.30811.09528-.46585.13699-.01243.00328-.02524.0058-.0377.00903-.14565.03786-.29342.07209-.44282.10308-.052.01078-.10488.01979-.15734.02969-.11289.02131-.22657.04091-.34146.05793-.05954.00883-.11948.01686-.17955.02447-.11447.01451-.23008.02631-.34644.03626-.05696.00487-.11366.01043-.17105.01416-.14458.00941-.29069.01467-.438.01651-.02885.00037-.05712.00233-.08609.00238-.17194.00035-.346-.00568-.52141-.01635-.04638-.00282-.09328-.00738-.1399-.01099-.13529-.0105-.27153-.02445-.40875-.04194-.05165-.00659-.10322-.01295-.15513-.02054-.17084-.02503-.34283-.05442-.51649-.09093-.01032-.00217-.02047-.00356-.03078-.00577-.18391-.03938-.36975-.08725-.55666-.14022-.05072-.01437-.10178-.03069-.15271-.04611-.14288-.04324-.2866-.09072-.43111-.14237-.05316-.019-.10625-.03744-.15962-.05761-.1911-.07221-.38316-.14956-.57689-.23721-6.75196-3.05511-12.05907-16.10542-14.19664-22.12359,1.33015-.38328,2.30411-1.60734,2.30411-3.06107,0-1.22956-.69709-2.29468-1.71657-2.82645.59599-1.17402,1.20022-2.60321,1.49494-4.02532.90855-4.38564-1.48058-5.9665-3.08096-5.9672-1.60029.0007-3.98943,1.58157-3.08124,5.9672.30325,1.46318.93409,2.93587,1.54659,4.12826-.92028.55904-1.53718,1.56794-1.53718,2.7235,0,1.35886.85171,2.51603,2.04907,2.97473-1.43107,4.02134-4.31808,11.29184-8.11479,16.56656-.165.22922-.33196.45399-.50033.67525-.15261.20053-.30667.39732-.462.59063-.10891.13554-.21849.26909-.32872.40079-.10418.12453-.20892.24729-.31426.36821-1.42439,1.63489-2.95233,2.93337-4.56081,3.66109-.19334.08748-.38498.16463-.57571.23674-.05425.02051-.10821.03928-.16225.05859-.14355.0513-.28636.09845-.42833.14146-.05162.01565-.10346.03216-.15487.04673-.18633.05281-.37161.10057-.55498.13983-.01202.00258-.0238.00421-.03579.00673-.17201.03607-.34239.06527-.51165.09009-.05228.00766-.10418.01409-.1562.0207-.13736.01749-.27379.03148-.40919.04198-.04606.00356-.09233.00808-.13815.01087-.17611.01071-.35086.01681-.52346.01642-.02589-.00005-.0512-.00184-.077-.00214-.15054-.00175-.2998-.0072-.4475-.01684-.05561-.00363-.11049-.00901-.1657-.01372-.11866-.01008-.23651-.02212-.35324-.03695-.05796-.00738-.1157-.01514-.17315-.02361-.11827-.01749-.23532-.03761-.35149-.05963-.04913-.00931-.09871-.01774-.14744-.02783-.15699-.03251-.31235-.06818-.46522-.10828-.00519-.00135-.01059-.00242-.01579-.0038-.16002-.04226-.31722-.08921-.47253-.13897-.04364-.01399-.0863-.02932-.12956-.04385-.11075-.03721-.22056-.07568-.32874-.11629-.05009-.01879-.09971-.03812-.14921-.05758-.10255-.04033-.20384-.0821-.30397-.12514-.04592-.01975-.09207-.03924-.13748-.05949-.11519-.05146-.22852-.10469-.34032-.15925-.02596-.01267-.05267-.02468-.07845-.03751-.1385-.06892-.27428-.14001-.40726-.2129-.0272-.01493-.05337-.03043-.08033-.0455-.10434-.05824-.20729-.11733-.30804-.17748-.04014-.02396-.0795-.04825-.11906-.07249-.08727-.05344-.17329-.10735-.2577-.16186-.03896-.02515-.07791-.0503-.11624-.07563-.08841-.0584-.17487-.11724-.25991-.17639-.02908-.02021-.05894-.04031-.0876-.06059-.1134-.08015-.22426-.16065-.33133-.24119-.00382-.00286-.00733-.00573-.01113-.00859-.10225-.07707-.20109-.15408-.29738-.23076-.02939-.02338-.05763-.04659-.08644-.0699-.07011-.05672-.13897-.11321-.20568-.16924-.03076-.02582-.06117-.05155-.09121-.07721-.06452-.05507-.12721-.1096-.18829-.16356-.02561-.02263-.05183-.04543-.07682-.06783-.07663-.06862-.15073-.13627-.22156-.20233.89546-.56434,1.49224-1.55944,1.49224-2.69624,0-1.76051-1.42688-3.18777-3.18714-3.18777s-3.18728,1.42725-3.18728,3.18777,1.42704,3.18774,3.18728,3.18774c.05363,0,.1059-.00543.15888-.00803-.80239,3.25706-3.1989,9.95987-9.3416,9.95987-.77049,0-1.54652-.11671-2.32032-.32823-5.79577-1.58434-11.46003-8.48263-13.71918-11.51131,1.18699-.4638,2.02923-1.61605,2.02923-2.96751,0-1.76051-1.42688-3.18777-3.18714-3.18777s-3.18728,1.42725-3.18728,3.18777,1.42704,3.18774,3.18728,3.18774c.23525,0,.46387-.02724.68461-.07563l10.1455,28.84526s.00007-.00002.00009-.00005l.00002.00005c1.95092-.79629,3.92426-1.53583,5.91225-2.22911,8.21447-2.86457,16.71002-4.83379,25.21262-5.7897,2.99541-.33675,5.99137-.55501,8.9759-.63464.90045-.02403,1.79984-.03612,2.69787-.03612,6.81481,0,13.45934.63243,19.91658,1.83782,8.30214,1.54978,16.2947,4.04667,23.9415,7.36421ZM134.0019,28.66799l5.34553,10.04258-5.34553,10.04295-5.3453-10.04295,5.3453-10.04258Z"/>
      <path d="M47.19327,136.23805s32.57036-2.83859,32.57036-29.24277c0-25.05352-30.62532-25.05352-39.04171-25.05352H1.67978c-.92772,0-1.67978.75206-1.67978,1.67978h0c0,.92772.75206,1.67978,1.67978,1.67978h5.60111c5.4636,0,6.49074,4.94134,6.49074,12.13495v78.18857c0,9.14157,1.1623,19.19573-5.84331,19.19573H1.476c-.81517,0-1.476.66083-1.476,1.476v.23386c0,.81733.65876,1.47907,1.47609,1.47601,6.07553-.02276,29.41389-.10706,41.84771-.10706,14.3745,0,40.48275-5.87774,40.48275-29.09447s-18.72689-31.7245-36.61328-32.56686ZM30.39879,85.30132h9.67015c5.98506,0,16.35444-.19665,19.54978,11.30848,3.19533,11.50517,1.26494,23.68798-1.56798,27.62564-2.83292,3.93761-6.80489,9.10344-13.75811,9.53785s-13.89383.63183-13.89383.63183v-49.10379ZM61.27438,185.30315c-4.01331,6.35595-11.56828,8.77027-15.35763,9.14387-3.78951.37355-15.51796.37355-15.51796.37355v-56.88812s1.87649-.47858,8.84316.20449,19.46611.78737,24.51574,13.89411c4.79911,12.45701,2.41388,25.51641-2.4833,33.27209Z"/>
      <path d="M117.01235,185.55386v-8.35626c.00595-.5258.01006-57.14044.01006-57.14044,0,0-13.09241,7.37036-25.96938,7.96137-.90387.04148-1.61144.79036-1.61144,1.69519h0c0,.93995.76197,1.70192,1.70192,1.70192h5.57897c5.4636,0,6.49074,4.94134,6.49074,12.13495,0,0,.0041,33.12122.01006,33.64701v8.35626c-.25558,5.25645-1.41843,9.26671-5.85336,9.26671h-3.6466c-.87915,0-1.59183.71269-1.59183,1.59183h0c0,.88208.71087,1.59601,1.59294,1.59185,2.85531-.01346,9.34558-.04194,17.80737-.06582,8.00906.0226,13.19631.04932,15.61771.06353.88215.00518,1.59462-.70852,1.59462-1.59069h0c0-.87852-.71218-1.5907-1.5907-1.5907h-4.28769c-4.43493,0-5.59787-4.01026-5.85336-9.26671Z"/>
      <polygon points="247.08709 77.42275 243.6762 93.30852 227.79318 96.71961 243.6762 100.13101 247.08709 116.01645 250.49765 100.13101 266.38101 96.71961 250.49765 93.30852 247.08709 77.42275"/>
      <path d="M183.98201,136.34783s32.57036-2.83859,32.57036-29.24277c0-25.05352-30.62532-25.05352-39.04171-25.05352h-39.04214c-.92772,0-1.67978.75206-1.67978,1.67978h0c0,.92772.75206,1.67978,1.67978,1.67978h5.60111c5.4636,0,6.49074,4.94134,6.49074,12.13495v78.18857c0,9.14157,1.1623,19.19573-5.84331,19.19573h-6.45232c-.81517,0-1.476.66083-1.476,1.476v.23386c0,.81733.65876,1.47907,1.47609,1.47601,6.07553-.02276,29.41389-.10706,41.84771-.10706,14.3745,0,40.48275-5.87774,40.48275-29.09447s-18.72689-31.7245-36.61328-32.56686ZM167.18752,85.4111h9.67015c5.98506,0,16.35444-.19665,19.54978,11.30848,3.19533,11.50517,1.26494,23.68798-1.56798,27.62564-2.83292,3.93761-6.80489,9.10344-13.75811,9.53785-6.95323.43441-13.89383.63183-13.89383.63183v-49.10379ZM198.06312,185.41293c-4.01331,6.35595-11.56828,8.77027-15.35763,9.14387-3.78951.37355-15.51796.37355-15.51796.37355v-56.88812s1.87649-.47858,8.84316.20449c6.96666.68307,19.46611.78737,24.51574,13.89411,4.79911,12.45701,2.41388,25.51641-2.4833,33.27209Z"/>
      <path d="M253.80109,185.66364v-8.35626c.00595-.5258.01006-57.14044.01006-57.14044,0,0-13.09241,7.37036-25.96938,7.96137-.90387.04148-1.61144.79036-1.61144,1.69519h0c0,.93995.76197,1.70192,1.70192,1.70192h5.57897c5.4636,0,6.49074,4.94134,6.49074,12.13495,0,0,.0041,33.12122.01006,33.64701v8.35626c-.25558,5.25645-1.41843,9.26671-5.85336,9.26671h-3.6466c-.87915,0-1.59183.71269-1.59183,1.59183h0c0,.88208.71087,1.59601,1.59294,1.59185,2.85531-.01346,9.34558-.04194,17.80737-.06582,8.00906.0226,13.19631.04932,15.61771.06353.88215.00518,1.59462-.70852,1.59462-1.59069h0c0-.87852-.71218-1.5907-1.5907-1.5907h-4.28769c-4.43493,0-5.59787-4.01026-5.85336-9.26671Z"/>
    </g>
  </g>
</svg>