<svg width="20" height="20" viewBox="0 0 20 20" fill="none" xmlns="http://www.w3.org/2000/svg">
<g clip-path="url(#clip0_186_78)">
<path fill-rule="evenodd" clip-rule="evenodd" d="M2.35677 0.637741C3.20921 -0.213486 4.59026 -0.212448 5.44142 0.640066C5.50475 0.703494 5.5641 0.770772 5.61916 0.8415L7.86284 3.72413C8.27408 4.25291 8.41908 4.94169 8.25658 5.59172L7.57285 8.32934C7.50145 8.61774 7.58581 8.92249 7.79535 9.13313L10.8665 12.2045C11.0774 12.4145 11.3827 12.4989 11.6715 12.427L14.4076 11.7432C15.0576 11.5817 15.7457 11.7268 16.2751 12.137L19.1575 14.3796C20.1937 15.1859 20.2887 16.7172 19.3612 17.6435L18.0688 18.9361C17.1438 19.8611 15.7613 20.2674 14.4726 19.8136C11.1736 18.6543 8.17851 16.7657 5.71041 14.2884C3.23345 11.8204 1.34498 8.82558 0.185583 5.52671C-0.266903 4.23915 0.139334 2.85534 1.06431 1.9303L2.35677 0.637741Z" fill="#333333"/>
</g>
<defs>
<clipPath id="clip0_186_78">
<rect width="20" height="20" fill="white"/>
</clipPath>
</defs>
</svg>
